<?xml version="1.0" encoding="utf-8" standalone="no"?>
<!DOCTYPE svg PUBLIC "-//W3C//DTD SVG 1.1//EN"
  "http://www.w3.org/Graphics/SVG/1.1/DTD/svg11.dtd">
<!-- Created with matplotlib (https://matplotlib.org/) -->
<svg height="72pt" version="1.1" viewBox="0 0 288 72" width="288pt" xmlns="http://www.w3.org/2000/svg" xmlns:xlink="http://www.w3.org/1999/xlink">
 <defs>
  <style type="text/css">
*{stroke-linecap:butt;stroke-linejoin:round;white-space:pre;}
  </style>
 </defs>
 <g id="figure_1">
  <g id="patch_1">
   <path d="M 0 72 
L 288 72 
L 288 0 
L 0 0 
z
" style="fill:#ffffff;"/>
  </g>
  <g id="axes_1">
   <g id="patch_2">
    <path d="M 36 63 
L 259.2 63 
L 259.2 8.64 
L 36 8.64 
z
" style="fill:#ffffff;"/>
   </g>
   <g id="PolyCollection_1">
    <path clip-path="url(#p44d99c9105)" d="M 46.145455 62.999494 
L 46.145455 63 
L 46.705213 63 
L 47.264972 63 
L 47.82473 63 
L 48.384489 63 
L 48.944247 63 
L 49.504006 63 
L 50.063764 63 
L 50.623523 63 
L 51.183282 63 
L 51.74304 63 
L 52.302799 63 
L 52.862557 63 
L 53.422316 63 
L 53.982074 63 
L 54.541833 63 
L 55.101591 63 
L 55.66135 63 
L 56.221109 63 
L 56.780867 63 
L 57.340626 63 
L 57.900384 63 
L 58.460143 63 
L 59.019901 63 
L 59.57966 63 
L 60.139418 63 
L 60.699177 63 
L 61.258936 63 
L 61.818694 63 
L 62.378453 63 
L 62.938211 63 
L 63.49797 63 
L 64.057728 63 
L 64.617487 63 
L 65.177245 63 
L 65.737004 63 
L 66.296763 63 
L 66.856521 63 
L 67.41628 63 
L 67.976038 63 
L 68.535797 63 
L 69.095555 63 
L 69.655314 63 
L 70.215072 63 
L 70.774831 63 
L 71.33459 63 
L 71.894348 63 
L 72.454107 63 
L 73.013865 63 
L 73.573624 63 
L 74.133382 63 
L 74.693141 63 
L 75.252899 63 
L 75.812658 63 
L 76.372417 63 
L 76.932175 63 
L 77.491934 63 
L 78.051692 63 
L 78.611451 63 
L 79.171209 63 
L 79.730968 63 
L 80.290726 63 
L 80.850485 63 
L 81.410244 63 
L 81.970002 63 
L 82.529761 63 
L 83.089519 63 
L 83.649278 63 
L 84.209036 63 
L 84.768795 63 
L 85.328553 63 
L 85.888312 63 
L 86.448071 63 
L 87.007829 63 
L 87.567588 63 
L 88.127346 63 
L 88.687105 63 
L 89.246863 63 
L 89.806622 63 
L 90.36638 63 
L 90.926139 63 
L 91.485898 63 
L 92.045656 63 
L 92.605415 63 
L 93.165173 63 
L 93.724932 63 
L 94.28469 63 
L 94.844449 63 
L 95.404207 63 
L 95.963966 63 
L 96.523725 63 
L 97.083483 63 
L 97.643242 63 
L 98.203 63 
L 98.762759 63 
L 99.322517 63 
L 99.882276 63 
L 100.442034 63 
L 101.001793 63 
L 101.561552 63 
L 102.12131 63 
L 102.681069 63 
L 103.240827 63 
L 103.800586 63 
L 104.360344 63 
L 104.920103 63 
L 105.479861 63 
L 106.03962 63 
L 106.599379 63 
L 107.159137 63 
L 107.718896 63 
L 108.278654 63 
L 108.838413 63 
L 109.398171 63 
L 109.95793 63 
L 110.517688 63 
L 111.077447 63 
L 111.637206 63 
L 112.196964 63 
L 112.756723 63 
L 113.316481 63 
L 113.87624 63 
L 114.435998 63 
L 114.995757 63 
L 115.555515 63 
L 116.115274 63 
L 116.675033 63 
L 117.234791 63 
L 117.234791 62.999496 
L 117.234791 62.999496 
L 116.675033 62.99881 
L 116.115274 62.997037 
L 115.555515 62.993563 
L 114.995757 62.988011 
L 114.435998 62.980879 
L 113.87624 62.973868 
L 113.316481 62.969311 
L 112.756723 62.968768 
L 112.196964 62.971728 
L 111.637206 62.975532 
L 111.077447 62.976628 
L 110.517688 62.97216 
L 109.95793 62.960788 
L 109.398171 62.942408 
L 108.838413 62.917417 
L 108.278654 62.886281 
L 107.718896 62.84936 
L 107.159137 62.806207 
L 106.599379 62.754375 
L 106.03962 62.689328 
L 105.479861 62.606656 
L 104.920103 62.504828 
L 104.360344 62.385105 
L 103.800586 62.24792 
L 103.240827 62.089508 
L 102.681069 61.902941 
L 102.12131 61.682963 
L 101.561552 61.429475 
L 101.001793 61.145864 
L 100.442034 60.833608 
L 99.882276 60.487442 
L 99.322517 60.094141 
L 98.762759 59.635939 
L 98.203 59.097763 
L 97.643242 58.474195 
L 97.083483 57.769626 
L 96.523725 56.989059 
L 95.963966 56.126672 
L 95.404207 55.164036 
L 94.844449 54.081037 
L 94.28469 52.86818 
L 93.724932 51.528131 
L 93.165173 50.069677 
L 92.605415 48.506858 
L 92.045656 46.865188 
L 91.485898 45.182052 
L 90.926139 43.493387 
L 90.36638 41.816896 
L 89.806622 40.146751 
L 89.246863 38.460295 
L 88.687105 36.725309 
L 88.127346 34.902191 
L 87.567588 32.948536 
L 87.007829 30.834992 
L 86.448071 28.567249 
L 85.888312 26.197076 
L 85.328553 23.812174 
L 84.768795 21.512435 
L 84.209036 19.388165 
L 83.649278 17.509519 
L 83.089519 15.926406 
L 82.529761 14.671378 
L 81.970002 13.756872 
L 81.410244 13.164947 
L 80.850485 12.837759 
L 80.290726 12.681415 
L 79.730968 12.591139 
L 79.171209 12.493023 
L 78.611451 12.380556 
L 78.051692 12.316959 
L 77.491934 12.395162 
L 76.932175 12.685037 
L 76.372417 13.211997 
L 75.812658 13.981371 
L 75.252899 15.016426 
L 74.693141 16.362958 
L 74.133382 18.048689 
L 73.573624 20.036679 
L 73.013865 22.222127 
L 72.454107 24.47866 
L 71.894348 26.713094 
L 71.33459 28.885932 
L 70.774831 30.991592 
L 70.215072 33.025487 
L 69.655314 34.968865 
L 69.095555 36.801447 
L 68.535797 38.526823 
L 67.976038 40.186017 
L 67.41628 41.845764 
L 66.856521 43.565924 
L 66.296763 45.361437 
L 65.737004 47.179782 
L 65.177245 48.91497 
L 64.617487 50.460278 
L 64.057728 51.767708 
L 63.49797 52.86929 
L 62.938211 53.846547 
L 62.378453 54.778371 
L 61.818694 55.707088 
L 61.258936 56.635071 
L 60.699177 57.537589 
L 60.139418 58.376589 
L 59.57966 59.113396 
L 59.019901 59.723318 
L 58.460143 60.207932 
L 57.900384 60.5953 
L 57.340626 60.92466 
L 56.780867 61.225469 
L 56.221109 61.506406 
L 55.66135 61.760894 
L 55.101591 61.981085 
L 54.541833 62.167323 
L 53.982074 62.327547 
L 53.422316 62.47058 
L 52.862557 62.600107 
L 52.302799 62.713454 
L 51.74304 62.805173 
L 51.183282 62.87226 
L 50.623523 62.916959 
L 50.063764 62.945435 
L 49.504006 62.964192 
L 48.944247 62.977448 
L 48.384489 62.98695 
L 47.82473 62.993278 
L 47.264972 62.996971 
L 46.705213 62.998796 
L 46.145455 62.999494 
z
" style="fill:#e6010c;fill-opacity:0.4;"/>
   </g>
   <g id="PolyCollection_2">
    <path clip-path="url(#p44d99c9105)" d="M 72.707984 62.999513 
L 72.707984 63 
L 73.357825 63 
L 74.007666 63 
L 74.657507 63 
L 75.307348 63 
L 75.957188 63 
L 76.607029 63 
L 77.25687 63 
L 77.906711 63 
L 78.556552 63 
L 79.206393 63 
L 79.856234 63 
L 80.506074 63 
L 81.155915 63 
L 81.805756 63 
L 82.455597 63 
L 83.105438 63 
L 83.755279 63 
L 84.405119 63 
L 85.05496 63 
L 85.704801 63 
L 86.354642 63 
L 87.004483 63 
L 87.654324 63 
L 88.304164 63 
L 88.954005 63 
L 89.603846 63 
L 90.253687 63 
L 90.903528 63 
L 91.553369 63 
L 92.20321 63 
L 92.85305 63 
L 93.502891 63 
L 94.152732 63 
L 94.802573 63 
L 95.452414 63 
L 96.102255 63 
L 96.752095 63 
L 97.401936 63 
L 98.051777 63 
L 98.701618 63 
L 99.351459 63 
L 100.0013 63 
L 100.65114 63 
L 101.300981 63 
L 101.950822 63 
L 102.600663 63 
L 103.250504 63 
L 103.900345 63 
L 104.550185 63 
L 105.200026 63 
L 105.849867 63 
L 106.499708 63 
L 107.149549 63 
L 107.79939 63 
L 108.449231 63 
L 109.099071 63 
L 109.748912 63 
L 110.398753 63 
L 111.048594 63 
L 111.698435 63 
L 112.348276 63 
L 112.998116 63 
L 113.647957 63 
L 114.297798 63 
L 114.947639 63 
L 115.59748 63 
L 116.247321 63 
L 116.897161 63 
L 117.547002 63 
L 118.196843 63 
L 118.846684 63 
L 119.496525 63 
L 120.146366 63 
L 120.796206 63 
L 121.446047 63 
L 122.095888 63 
L 122.745729 63 
L 123.39557 63 
L 124.045411 63 
L 124.695252 63 
L 125.345092 63 
L 125.994933 63 
L 126.644774 63 
L 127.294615 63 
L 127.944456 63 
L 128.594297 63 
L 129.244137 63 
L 129.893978 63 
L 130.543819 63 
L 131.19366 63 
L 131.843501 63 
L 132.493342 63 
L 133.143182 63 
L 133.793023 63 
L 134.442864 63 
L 135.092705 63 
L 135.742546 63 
L 136.392387 63 
L 137.042228 63 
L 137.692068 63 
L 138.341909 63 
L 138.99175 63 
L 139.641591 63 
L 140.291432 63 
L 140.941273 63 
L 141.591113 63 
L 142.240954 63 
L 142.890795 63 
L 143.540636 63 
L 144.190477 63 
L 144.840318 63 
L 145.490158 63 
L 146.139999 63 
L 146.78984 63 
L 147.439681 63 
L 148.089522 63 
L 148.739363 63 
L 149.389203 63 
L 150.039044 63 
L 150.688885 63 
L 151.338726 63 
L 151.988567 63 
L 152.638408 63 
L 153.288249 63 
L 153.938089 63 
L 154.58793 63 
L 155.237771 63 
L 155.237771 62.999513 
L 155.237771 62.999513 
L 154.58793 62.998644 
L 153.938089 62.996278 
L 153.288249 62.991546 
L 152.638408 62.984301 
L 151.988567 62.976177 
L 151.338726 62.970463 
L 150.688885 62.970084 
L 150.039044 62.975255 
L 149.389203 62.983285 
L 148.739363 62.990748 
L 148.089522 62.995616 
L 147.439681 62.997404 
L 146.78984 62.995648 
L 146.139999 62.988273 
L 145.490158 62.971342 
L 144.840318 62.941316 
L 144.190477 62.899359 
L 143.540636 62.854092 
L 142.890795 62.818495 
L 142.240954 62.801506 
L 141.591113 62.800712 
L 140.941273 62.802461 
L 140.291432 62.789951 
L 139.641591 62.752988 
L 138.99175 62.690137 
L 138.341909 62.600338 
L 137.692068 62.473058 
L 137.042228 62.288662 
L 136.392387 62.029281 
L 135.742546 61.68929 
L 135.092705 61.275102 
L 134.442864 60.793562 
L 133.793023 60.239779 
L 133.143182 59.597944 
L 132.493342 58.854935 
L 131.843501 58.011459 
L 131.19366 57.07978 
L 130.543819 56.072489 
L 129.893978 54.993425 
L 129.244137 53.837704 
L 128.594297 52.598488 
L 127.944456 51.269527 
L 127.294615 49.83604 
L 126.644774 48.263275 
L 125.994933 46.501673 
L 125.345092 44.515892 
L 124.695252 42.328124 
L 124.045411 40.050757 
L 123.39557 37.859907 
L 122.745729 35.879238 
L 122.095888 34.049099 
L 121.446047 32.129787 
L 120.796206 29.879055 
L 120.146366 27.251911 
L 119.496525 24.43959 
L 118.846684 21.733307 
L 118.196843 19.357032 
L 117.547002 17.396453 
L 116.897161 15.828773 
L 116.247321 14.589459 
L 115.59748 13.624946 
L 114.947639 12.907613 
L 114.297798 12.417839 
L 113.647957 12.13248 
L 112.998116 12.052247 
L 112.348276 12.239224 
L 111.698435 12.797939 
L 111.048594 13.784239 
L 110.398753 15.120252 
L 109.748912 16.612564 
L 109.099071 18.070842 
L 108.449231 19.419315 
L 107.79939 20.715337 
L 107.149549 22.096065 
L 106.499708 23.714693 
L 105.849867 25.679995 
L 105.200026 27.998584 
L 104.550185 30.560856 
L 103.900345 33.197879 
L 103.250504 35.760862 
L 102.600663 38.162693 
L 101.950822 40.387919 
L 101.300981 42.498216 
L 100.65114 44.6073 
L 100.0013 46.794139 
L 99.351459 49.009766 
L 98.701618 51.081922 
L 98.051777 52.832938 
L 97.401936 54.201499 
L 96.752095 55.261651 
L 96.102255 56.146179 
L 95.452414 56.956366 
L 94.802573 57.721166 
L 94.152732 58.417734 
L 93.502891 59.024573 
L 92.85305 59.557789 
L 92.20321 60.060261 
L 91.553369 60.562007 
L 90.903528 61.054436 
L 90.253687 61.499372 
L 89.603846 61.858643 
L 88.954005 62.117249 
L 88.304164 62.286666 
L 87.654324 62.39443 
L 87.004483 62.471073 
L 86.354642 62.539435 
L 85.704801 62.609081 
L 85.05496 62.678176 
L 84.405119 62.740402 
L 83.755279 62.79145 
L 83.105438 62.832051 
L 82.455597 62.866887 
L 81.805756 62.90028 
L 81.155915 62.93227 
L 80.506074 62.958926 
L 79.856234 62.976089 
L 79.206393 62.982514 
L 78.556552 62.980413 
L 77.906711 62.974429 
L 77.25687 62.969889 
L 76.607029 62.970425 
L 75.957188 62.976171 
L 75.307348 62.9843 
L 74.657507 62.991546 
L 74.007666 62.996278 
L 73.357825 62.998644 
L 72.707984 62.999513 
z
" style="fill:#277f40;fill-opacity:0.4;"/>
   </g>
   <g id="PolyCollection_3">
    <path clip-path="url(#p44d99c9105)" d="M 146.741593 62.999486 
L 146.741593 63 
L 147.308819 63 
L 147.876045 63 
L 148.443272 63 
L 149.010498 63 
L 149.577724 63 
L 150.14495 63 
L 150.712176 63 
L 151.279403 63 
L 151.846629 63 
L 152.413855 63 
L 152.981081 63 
L 153.548308 63 
L 154.115534 63 
L 154.68276 63 
L 155.249986 63 
L 155.817212 63 
L 156.384439 63 
L 156.951665 63 
L 157.518891 63 
L 158.086117 63 
L 158.653344 63 
L 159.22057 63 
L 159.787796 63 
L 160.355022 63 
L 160.922248 63 
L 161.489475 63 
L 162.056701 63 
L 162.623927 63 
L 163.191153 63 
L 163.75838 63 
L 164.325606 63 
L 164.892832 63 
L 165.460058 63 
L 166.027284 63 
L 166.594511 63 
L 167.161737 63 
L 167.728963 63 
L 168.296189 63 
L 168.863416 63 
L 169.430642 63 
L 169.997868 63 
L 170.565094 63 
L 171.13232 63 
L 171.699547 63 
L 172.266773 63 
L 172.833999 63 
L 173.401225 63 
L 173.968451 63 
L 174.535678 63 
L 175.102904 63 
L 175.67013 63 
L 176.237356 63 
L 176.804583 63 
L 177.371809 63 
L 177.939035 63 
L 178.506261 63 
L 179.073487 63 
L 179.640714 63 
L 180.20794 63 
L 180.775166 63 
L 181.342392 63 
L 181.909619 63 
L 182.476845 63 
L 183.044071 63 
L 183.611297 63 
L 184.178523 63 
L 184.74575 63 
L 185.312976 63 
L 185.880202 63 
L 186.447428 63 
L 187.014655 63 
L 187.581881 63 
L 188.149107 63 
L 188.716333 63 
L 189.283559 63 
L 189.850786 63 
L 190.418012 63 
L 190.985238 63 
L 191.552464 63 
L 192.119691 63 
L 192.686917 63 
L 193.254143 63 
L 193.821369 63 
L 194.388595 63 
L 194.955822 63 
L 195.523048 63 
L 196.090274 63 
L 196.6575 63 
L 197.224727 63 
L 197.791953 63 
L 198.359179 63 
L 198.926405 63 
L 199.493631 63 
L 200.060858 63 
L 200.628084 63 
L 201.19531 63 
L 201.762536 63 
L 202.329762 63 
L 202.896989 63 
L 203.464215 63 
L 204.031441 63 
L 204.598667 63 
L 205.165894 63 
L 205.73312 63 
L 206.300346 63 
L 206.867572 63 
L 207.434798 63 
L 208.002025 63 
L 208.569251 63 
L 209.136477 63 
L 209.703703 63 
L 210.27093 63 
L 210.838156 63 
L 211.405382 63 
L 211.972608 63 
L 212.539834 63 
L 213.107061 63 
L 213.674287 63 
L 214.241513 63 
L 214.808739 63 
L 215.375966 63 
L 215.943192 63 
L 216.510418 63 
L 217.077644 63 
L 217.64487 63 
L 218.212097 63 
L 218.779323 63 
L 218.779323 62.9995 
L 218.779323 62.9995 
L 218.212097 62.99883 
L 217.64487 62.997094 
L 217.077644 62.993673 
L 216.510418 62.988116 
L 215.943192 62.980674 
L 215.375966 62.972485 
L 214.808739 62.96498 
L 214.241513 62.95875 
L 213.674287 62.95304 
L 213.107061 62.946755 
L 212.539834 62.940222 
L 211.972608 62.935718 
L 211.405382 62.935648 
L 210.838156 62.939596 
L 210.27093 62.94265 
L 209.703703 62.936292 
L 209.136477 62.91119 
L 208.569251 62.86039 
L 208.002025 62.781695 
L 207.434798 62.678476 
L 206.867572 62.558304 
L 206.300346 62.429231 
L 205.73312 62.294437 
L 205.165894 62.146977 
L 204.598667 61.967192 
L 204.031441 61.725503 
L 203.464215 61.392006 
L 202.896989 60.951 
L 202.329762 60.414343 
L 201.762536 59.824883 
L 201.19531 59.242903 
L 200.628084 58.716563 
L 200.060858 58.250028 
L 199.493631 57.791082 
L 198.926405 57.251702 
L 198.359179 56.551602 
L 197.791953 55.656289 
L 197.224727 54.586103 
L 196.6575 53.395489 
L 196.090274 52.139796 
L 195.523048 50.848577 
L 194.955822 49.517036 
L 194.388595 48.11885 
L 193.821369 46.63178 
L 193.254143 45.054584 
L 192.686917 43.396311 
L 192.119691 41.644648 
L 191.552464 39.745878 
L 190.985238 37.624708 
L 190.418012 35.239414 
L 189.850786 32.637306 
L 189.283559 29.970029 
L 188.716333 27.448011 
L 188.149107 25.250918 
L 187.581881 23.447981 
L 187.014655 21.983455 
L 186.447428 20.733634 
L 185.880202 19.585114 
L 185.312976 18.476644 
L 184.74575 17.390607 
L 184.178523 16.323847 
L 183.611297 15.274054 
L 183.044071 14.254442 
L 182.476845 13.3202 
L 181.909619 12.573778 
L 181.342392 12.126303 
L 180.775166 12.030661 
L 180.20794 12.239666 
L 179.640714 12.636512 
L 179.073487 13.124603 
L 178.506261 13.704153 
L 177.939035 14.470511 
L 177.371809 15.540323 
L 176.804583 16.969842 
L 176.237356 18.721796 
L 175.67013 20.688174 
L 175.102904 22.73979 
L 174.535678 24.770166 
L 173.968451 26.719052 
L 173.401225 28.578946 
L 172.833999 30.390854 
L 172.266773 32.2269 
L 171.699547 34.15692 
L 171.13232 36.210025 
L 170.565094 38.35224 
L 169.997868 40.493387 
L 169.430642 42.520052 
L 168.863416 44.340219 
L 168.296189 45.919412 
L 167.728963 47.288637 
L 167.161737 48.518899 
L 166.594511 49.680877 
L 166.027284 50.818539 
L 165.460058 51.949413 
L 164.892832 53.07911 
L 164.325606 54.209387 
L 163.75838 55.332647 
L 163.191153 56.423331 
L 162.623927 57.440145 
L 162.056701 58.341523 
L 161.489475 59.103592 
L 160.922248 59.727934 
L 160.355022 60.235679 
L 159.787796 60.654707 
L 159.22057 61.009161 
L 158.653344 61.315422 
L 158.086117 61.582845 
L 157.518891 61.815956 
L 156.951665 62.016696 
L 156.384439 62.186739 
L 155.817212 62.329165 
L 155.249986 62.448255 
L 154.68276 62.547936 
L 154.115534 62.631083 
L 153.548308 62.700447 
L 152.981081 62.759388 
L 152.413855 62.810986 
L 151.846629 62.85665 
L 151.279403 62.896103 
L 150.712176 62.928589 
L 150.14495 62.953871 
L 149.577724 62.972361 
L 149.010498 62.98489 
L 148.443272 62.992587 
L 147.876045 62.996778 
L 147.308819 62.998751 
L 146.741593 62.999486 
z
" style="fill:#face66;fill-opacity:0.4;"/>
   </g>
   <g id="PolyCollection_4">
    <path clip-path="url(#p44d99c9105)" d="M 175.988733 62.999507 
L 175.988733 63 
L 176.564054 63 
L 177.139375 63 
L 177.714697 63 
L 178.290018 63 
L 178.86534 63 
L 179.440661 63 
L 180.015982 63 
L 180.591304 63 
L 181.166625 63 
L 181.741946 63 
L 182.317268 63 
L 182.892589 63 
L 183.46791 63 
L 184.043232 63 
L 184.618553 63 
L 185.193875 63 
L 185.769196 63 
L 186.344517 63 
L 186.919839 63 
L 187.49516 63 
L 188.070481 63 
L 188.645803 63 
L 189.221124 63 
L 189.796445 63 
L 190.371767 63 
L 190.947088 63 
L 191.522409 63 
L 192.097731 63 
L 192.673052 63 
L 193.248374 63 
L 193.823695 63 
L 194.399016 63 
L 194.974338 63 
L 195.549659 63 
L 196.12498 63 
L 196.700302 63 
L 197.275623 63 
L 197.850944 63 
L 198.426266 63 
L 199.001587 63 
L 199.576909 63 
L 200.15223 63 
L 200.727551 63 
L 201.302873 63 
L 201.878194 63 
L 202.453515 63 
L 203.028837 63 
L 203.604158 63 
L 204.179479 63 
L 204.754801 63 
L 205.330122 63 
L 205.905443 63 
L 206.480765 63 
L 207.056086 63 
L 207.631408 63 
L 208.206729 63 
L 208.78205 63 
L 209.357372 63 
L 209.932693 63 
L 210.508014 63 
L 211.083336 63 
L 211.658657 63 
L 212.233978 63 
L 212.8093 63 
L 213.384621 63 
L 213.959943 63 
L 214.535264 63 
L 215.110585 63 
L 215.685907 63 
L 216.261228 63 
L 216.836549 63 
L 217.411871 63 
L 217.987192 63 
L 218.562513 63 
L 219.137835 63 
L 219.713156 63 
L 220.288477 63 
L 220.863799 63 
L 221.43912 63 
L 222.014442 63 
L 222.589763 63 
L 223.165084 63 
L 223.740406 63 
L 224.315727 63 
L 224.891048 63 
L 225.46637 63 
L 226.041691 63 
L 226.617012 63 
L 227.192334 63 
L 227.767655 63 
L 228.342977 63 
L 228.918298 63 
L 229.493619 63 
L 230.068941 63 
L 230.644262 63 
L 231.219583 63 
L 231.794905 63 
L 232.370226 63 
L 232.945547 63 
L 233.520869 63 
L 234.09619 63 
L 234.671511 63 
L 235.246833 63 
L 235.822154 63 
L 236.397476 63 
L 236.972797 63 
L 237.548118 63 
L 238.12344 63 
L 238.698761 63 
L 239.274082 63 
L 239.849404 63 
L 240.424725 63 
L 241.000046 63 
L 241.575368 63 
L 242.150689 63 
L 242.72601 63 
L 243.301332 63 
L 243.876653 63 
L 244.451975 63 
L 245.027296 63 
L 245.602617 63 
L 246.177939 63 
L 246.75326 63 
L 247.328581 63 
L 247.903903 63 
L 248.479224 63 
L 249.054545 63 
L 249.054545 62.999478 
L 249.054545 62.999478 
L 248.479224 62.998649 
L 247.903903 62.99635 
L 247.328581 62.991267 
L 246.75326 62.981593 
L 246.177939 62.965436 
L 245.602617 62.941364 
L 245.027296 62.908826 
L 244.451975 62.868292 
L 243.876653 62.821074 
L 243.301332 62.768748 
L 242.72601 62.712313 
L 242.150689 62.65165 
L 241.575368 62.585543 
L 241.000046 62.511284 
L 240.424725 62.422873 
L 239.849404 62.309691 
L 239.274082 62.159575 
L 238.698761 61.966675 
L 238.12344 61.737693 
L 237.548118 61.488996 
L 236.972797 61.234702 
L 236.397476 60.974773 
L 235.822154 60.692522 
L 235.246833 60.362128 
L 234.671511 59.958335 
L 234.09619 59.461191 
L 233.520869 58.855617 
L 232.945547 58.129195 
L 232.370226 57.269225 
L 231.794905 56.258849 
L 231.219583 55.076726 
L 230.644262 53.708049 
L 230.068941 52.166299 
L 229.493619 50.509504 
L 228.918298 48.830347 
L 228.342977 47.216463 
L 227.767655 45.704233 
L 227.192334 44.261815 
L 226.617012 42.817912 
L 226.041691 41.313224 
L 225.46637 39.73078 
L 224.891048 38.085799 
L 224.315727 36.397926 
L 223.740406 34.677041 
L 223.165084 32.923471 
L 222.589763 31.122836 
L 222.014442 29.23405 
L 221.43912 27.195709 
L 220.863799 24.967025 
L 220.288477 22.579108 
L 219.713156 20.150258 
L 219.137835 17.847105 
L 218.562513 15.822481 
L 217.987192 14.174531 
L 217.411871 12.939858 
L 216.836549 12.1018 
L 216.261228 11.598334 
L 215.685907 11.33665 
L 215.110585 11.228571 
L 214.535264 11.24145 
L 213.959943 11.430692 
L 213.384621 11.914713 
L 212.8093 12.791095 
L 212.233978 14.049149 
L 211.658657 15.550511 
L 211.083336 17.100662 
L 210.508014 18.562535 
L 209.932693 19.930647 
L 209.357372 21.313329 
L 208.78205 22.83905 
L 208.206729 24.56061 
L 207.631408 26.429163 
L 207.056086 28.345637 
L 206.480765 30.231561 
L 205.905443 32.060787 
L 205.330122 33.848036 
L 204.754801 35.628001 
L 204.179479 37.444691 
L 203.604158 39.342853 
L 203.028837 41.351811 
L 202.453515 43.465575 
L 201.878194 45.628539 
L 201.302873 47.736266 
L 200.727551 49.660395 
L 200.15223 51.295184 
L 199.576909 52.603103 
L 199.001587 53.631486 
L 198.426266 54.490393 
L 197.850944 55.304628 
L 197.275623 56.162877 
L 196.700302 57.085703 
L 196.12498 58.026011 
L 195.549659 58.900867 
L 194.974338 59.637148 
L 194.399016 60.205562 
L 193.823695 60.625145 
L 193.248374 60.940547 
L 192.673052 61.193428 
L 192.097731 61.409698 
L 191.522409 61.605343 
L 190.947088 61.795529 
L 190.371767 61.993368 
L 189.796445 62.201037 
L 189.221124 62.405837 
L 188.645803 62.587297 
L 188.070481 62.729163 
L 187.49516 62.826673 
L 186.919839 62.885767 
L 186.344517 62.917645 
L 185.769196 62.933427 
L 185.193875 62.941252 
L 184.618553 62.945696 
L 184.043232 62.948554 
L 183.46791 62.95021 
L 182.892589 62.950898 
L 182.317268 62.951191 
L 181.741946 62.951792 
L 181.166625 62.953355 
L 180.591304 62.956616 
L 180.015982 62.962234 
L 179.440661 62.97012 
L 178.86534 62.979043 
L 178.290018 62.987199 
L 177.714697 62.993264 
L 177.139375 62.996962 
L 176.564054 62.998809 
L 175.988733 62.999507 
z
" style="fill:#124080;fill-opacity:0.4;"/>
   </g>
   <g id="matplotlib.axis_1"/>
   <g id="matplotlib.axis_2"/>
   <g id="line2d_1">
    <path clip-path="url(#p44d99c9105)" d="M 46.145455 62.999494 
L 50.623523 62.916959 
L 52.302799 62.713454 
L 54.541833 62.167323 
L 56.221109 61.506406 
L 57.900384 60.5953 
L 59.019901 59.723318 
L 60.139418 58.376589 
L 61.818694 55.707088 
L 63.49797 52.86929 
L 64.617487 50.460278 
L 65.737004 47.179782 
L 67.976038 40.186017 
L 69.655314 34.968865 
L 71.33459 28.885932 
L 74.133382 18.048689 
L 75.252899 15.016426 
L 75.812658 13.981371 
L 76.372417 13.211997 
L 76.932175 12.685037 
L 77.491934 12.395162 
L 78.051692 12.316959 
L 80.290726 12.681415 
L 80.850485 12.837759 
L 81.410244 13.164947 
L 81.970002 13.756872 
L 82.529761 14.671378 
L 83.089519 15.926406 
L 84.209036 19.388165 
L 85.328553 23.812174 
L 87.567588 32.948536 
L 89.246863 38.460295 
L 93.165173 50.069677 
L 94.28469 52.86818 
L 95.404207 55.164036 
L 96.523725 56.989059 
L 97.643242 58.474195 
L 98.762759 59.635939 
L 99.882276 60.487442 
L 101.561552 61.429475 
L 103.240827 62.089508 
L 104.920103 62.504828 
L 107.159137 62.806207 
L 110.517688 62.97216 
L 117.234791 62.999496 
L 117.234791 62.999496 
" style="fill:none;stroke:#e6010c;stroke-linecap:square;stroke-opacity:0.4;stroke-width:2;"/>
   </g>
   <g id="line2d_2">
    <path clip-path="url(#p44d99c9105)" d="M 72.707984 62.999513 
L 81.805756 62.90028 
L 85.704801 62.609081 
L 88.304164 62.286666 
L 89.603846 61.858643 
L 90.903528 61.054436 
L 93.502891 59.024573 
L 94.802573 57.721166 
L 96.752095 55.261651 
L 97.401936 54.201499 
L 98.051777 52.832938 
L 98.701618 51.081922 
L 101.950822 40.387919 
L 103.250504 35.760862 
L 105.849867 25.679995 
L 107.149549 22.096065 
L 111.048594 13.784239 
L 111.698435 12.797939 
L 112.348276 12.239224 
L 112.998116 12.052247 
L 113.647957 12.13248 
L 114.297798 12.417839 
L 114.947639 12.907613 
L 115.59748 13.624946 
L 116.247321 14.589459 
L 116.897161 15.828773 
L 117.547002 17.396453 
L 118.196843 19.357032 
L 119.496525 24.43959 
L 120.796206 29.879055 
L 122.095888 34.049099 
L 123.39557 37.859907 
L 125.994933 46.501673 
L 127.294615 49.83604 
L 128.594297 52.598488 
L 129.893978 54.993425 
L 131.19366 57.07978 
L 132.493342 58.854935 
L 133.793023 60.239779 
L 135.092705 61.275102 
L 136.392387 62.029281 
L 137.692068 62.473058 
L 139.641591 62.752988 
L 142.240954 62.801506 
L 153.938089 62.996278 
L 155.237771 62.999513 
L 155.237771 62.999513 
" style="fill:none;stroke:#277f40;stroke-linecap:square;stroke-opacity:0.4;stroke-width:2;"/>
   </g>
   <g id="line2d_3">
    <path clip-path="url(#p44d99c9105)" d="M 146.741593 62.999486 
L 151.279403 62.896103 
L 154.115534 62.631083 
L 156.384439 62.186739 
L 158.086117 61.582845 
L 159.22057 61.009161 
L 160.355022 60.235679 
L 161.489475 59.103592 
L 162.623927 57.440145 
L 164.325606 54.209387 
L 167.728963 47.288637 
L 168.863416 44.340219 
L 169.997868 40.493387 
L 172.266773 32.2269 
L 175.102904 22.73979 
L 176.804583 16.969842 
L 177.371809 15.540323 
L 177.939035 14.470511 
L 178.506261 13.704153 
L 179.640714 12.636512 
L 180.20794 12.239666 
L 180.775166 12.030661 
L 181.342392 12.126303 
L 181.909619 12.573778 
L 182.476845 13.3202 
L 184.178523 16.323847 
L 186.447428 20.733634 
L 187.581881 23.447981 
L 188.149107 25.250918 
L 189.283559 29.970029 
L 190.985238 37.624708 
L 192.119691 41.644648 
L 193.821369 46.63178 
L 195.523048 50.848577 
L 197.224727 54.586103 
L 198.359179 56.551602 
L 199.493631 57.791082 
L 201.19531 59.242903 
L 202.896989 60.951 
L 204.031441 61.725503 
L 205.165894 62.146977 
L 208.002025 62.781695 
L 209.703703 62.936292 
L 218.779323 62.9995 
L 218.779323 62.9995 
" style="fill:none;stroke:#face66;stroke-linecap:square;stroke-opacity:0.4;stroke-width:2;"/>
   </g>
   <g id="line2d_4">
    <path clip-path="url(#p44d99c9105)" d="M 175.988733 62.999507 
L 186.919839 62.885767 
L 188.070481 62.729163 
L 189.796445 62.201037 
L 193.248374 60.940547 
L 194.399016 60.205562 
L 194.974338 59.637148 
L 196.12498 58.026011 
L 197.850944 55.304628 
L 199.001587 53.631486 
L 199.576909 52.603103 
L 200.15223 51.295184 
L 201.302873 47.736266 
L 204.179479 37.444691 
L 209.357372 21.313329 
L 211.658657 15.550511 
L 212.8093 12.791095 
L 213.384621 11.914713 
L 213.959943 11.430692 
L 214.535264 11.24145 
L 215.110585 11.228571 
L 215.685907 11.33665 
L 216.261228 11.598334 
L 216.836549 12.1018 
L 217.411871 12.939858 
L 217.987192 14.174531 
L 218.562513 15.822481 
L 219.713156 20.150258 
L 221.43912 27.195709 
L 223.165084 32.923471 
L 225.46637 39.73078 
L 227.192334 44.261815 
L 228.918298 48.830347 
L 230.644262 53.708049 
L 231.794905 56.258849 
L 232.945547 58.129195 
L 234.09619 59.461191 
L 235.246833 60.362128 
L 236.972797 61.234702 
L 239.274082 62.159575 
L 241.000046 62.511284 
L 244.451975 62.868292 
L 247.328581 62.991267 
L 249.054545 62.999478 
L 249.054545 62.999478 
" style="fill:none;stroke:#124080;stroke-linecap:square;stroke-opacity:0.4;stroke-width:2;"/>
   </g>
   <g id="patch_3">
    <path d="M 36 63 
L 259.2 63 
" style="fill:none;stroke:#000000;stroke-linecap:square;stroke-linejoin:miter;stroke-width:1.25;"/>
   </g>
  </g>
 </g>
 <defs>
  <clipPath id="p44d99c9105">
   <rect height="54.36" width="223.2" x="36" y="8.64"/>
  </clipPath>
 </defs>
</svg>
